<svg id="Layer_1" viewBox="0 0 24 24" xmlns="http://www.w3.org/2000/svg" data-name="Layer 1"><path d="m11 22c-.192 0-.383-.056-.547-.163-3.818-2.497-6.945-5.626-9.295-9.298-.21-.329-.21-.749 0-1.078 2.348-3.671 5.475-6.8 9.295-9.298.259-.17.583-.209.876-.107s.522.334.62.629c.022.066.5 1.526.803 4.369.708-.035 1.377-.054 1.998-.054 3.255 0 6.744.489 6.89.51.338.048.629.266.77.576.061.133.59 1.37.59 3.914s-.529 3.781-.59 3.914c-.141.311-.432.528-.77.576-.146.021-3.635.51-6.89.51-.621 0-1.29-.019-1.998-.054-.303 2.843-.781 4.303-.803 4.369-.128.403-.527.689-.949.685zm-7.804-10c1.899 2.823 4.307 5.291 7.176 7.356.163-.814.352-2 .479-3.549.045-.545.53-.94 1.066-.916 1.028.072 1.981.108 2.833.108 2.325 0 4.847-.271 5.987-.41.118-.488.263-1.343.263-2.59s-.145-2.099-.263-2.59c-1.141-.14-3.663-.41-5.987-.41-.852 0-1.805.036-2.833.108-.539.022-1.021-.371-1.066-.916-.127-1.549-.316-2.734-.479-3.549-2.869 2.065-5.277 4.533-7.176 7.356z"/></svg>